<?xml version="1.0" encoding="utf-8" standalone="no"?>
<!DOCTYPE svg PUBLIC "-//W3C//DTD SVG 1.1//EN"
  "http://www.w3.org/Graphics/SVG/1.1/DTD/svg11.dtd">
<svg xmlns:xlink="http://www.w3.org/1999/xlink" width="1800pt" height="576pt" viewBox="0 0 1800 576" xmlns="http://www.w3.org/2000/svg" version="1.1">
 <metadata>
  <rdf:RDF xmlns:dc="http://purl.org/dc/elements/1.1/" xmlns:cc="http://creativecommons.org/ns#" xmlns:rdf="http://www.w3.org/1999/02/22-rdf-syntax-ns#">
   <cc:Work>
    <dc:type rdf:resource="http://purl.org/dc/dcmitype/StillImage"/>
    <dc:date>2024-05-30T20:22:41.147481</dc:date>
    <dc:format>image/svg+xml</dc:format>
    <dc:creator>
     <cc:Agent>
      <dc:title>Matplotlib v3.5.1, https://matplotlib.org/</dc:title>
     </cc:Agent>
    </dc:creator>
   </cc:Work>
  </rdf:RDF>
 </metadata>
 <defs>
  <style type="text/css">*{stroke-linejoin: round; stroke-linecap: butt}</style>
 </defs>
 <g id="figure_1">
  <g id="patch_1">
   <path d="M 0 576 
L 1800 576 
L 1800 0 
L 0 0 
z
" style="fill: #ffffff"/>
  </g>
  <g id="axes_1">
   <g id="patch_2">
    <path d="M 225 512.64 
L 1620 512.64 
L 1620 69.12 
L 225 69.12 
z
" style="fill: #ffffff"/>
   </g>
   <g id="matplotlib.axis_1">
    <g id="xtick_1">
     <g id="line2d_1">
      <defs>
       <path id="m7e12b5f683" d="M 0 0 
L 0 3.5 
" style="stroke: #000000; stroke-width: 0.8"/>
      </defs>
      <g>
       <use xlink:href="#m7e12b5f683" x="288.409091" y="512.64" style="stroke: #000000; stroke-width: 0.8"/>
      </g>
     </g>
     <g id="text_1">
      <!-- 0 -->
      <g transform="translate(285.909091 526.515)scale(0.1 -0.1)">
       <defs>
        <path id="SimHei-30" d="M 225 2537 
Q 250 3200 412 3587 
Q 575 3975 875 4225 
Q 1175 4475 1612 4475 
Q 2050 4475 2375 4112 
Q 2700 3750 2800 3200 
Q 2900 2650 2862 1937 
Q 2825 1225 2612 775 
Q 2400 325 1975 150 
Q 1550 -25 1125 187 
Q 700 400 525 750 
Q 350 1100 275 1487 
Q 200 1875 225 2537 
z
M 750 2687 
Q 675 2000 800 1462 
Q 925 925 1212 700 
Q 1500 475 1800 612 
Q 2100 750 2237 1162 
Q 2375 1575 2375 2062 
Q 2375 2550 2337 2950 
Q 2300 3350 2112 3675 
Q 1925 4000 1612 4012 
Q 1300 4025 1062 3700 
Q 825 3375 750 2687 
z
" transform="scale(0.015625)"/>
       </defs>
       <use xlink:href="#SimHei-30"/>
      </g>
     </g>
    </g>
    <g id="xtick_2">
     <g id="line2d_2">
      <g>
       <use xlink:href="#m7e12b5f683" x="463.863133" y="512.64" style="stroke: #000000; stroke-width: 0.8"/>
      </g>
     </g>
     <g id="text_2">
      <!-- 250 -->
      <g transform="translate(456.363133 526.515)scale(0.1 -0.1)">
       <defs>
        <path id="SimHei-32" d="M 300 250 
Q 325 625 650 925 
Q 975 1225 1475 1862 
Q 1975 2500 2125 2850 
Q 2275 3200 2237 3450 
Q 2200 3700 2000 3862 
Q 1800 4025 1537 4000 
Q 1275 3975 1037 3800 
Q 800 3625 675 3275 
L 200 3350 
Q 400 3925 712 4187 
Q 1025 4450 1450 4475 
Q 1700 4500 1900 4462 
Q 2100 4425 2312 4287 
Q 2525 4150 2662 3875 
Q 2800 3600 2762 3212 
Q 2725 2825 2375 2287 
Q 2025 1750 1025 600 
L 2825 600 
L 2825 150 
L 300 150 
L 300 250 
z
" transform="scale(0.015625)"/>
        <path id="SimHei-35" d="M 550 1325 
Q 725 650 1150 575 
Q 1575 500 1837 662 
Q 2100 825 2212 1087 
Q 2325 1350 2312 1675 
Q 2300 2000 2137 2225 
Q 1975 2450 1725 2525 
Q 1475 2600 1162 2525 
Q 850 2450 650 2175 
L 225 2225 
Q 275 2375 700 4375 
L 2675 4375 
L 2675 3925 
L 1075 3925 
Q 950 3250 825 2850 
Q 1200 3025 1525 3012 
Q 1850 3000 2150 2862 
Q 2450 2725 2587 2487 
Q 2725 2250 2787 2012 
Q 2850 1775 2837 1500 
Q 2825 1225 2725 937 
Q 2625 650 2425 462 
Q 2225 275 1937 162 
Q 1650 50 1275 75 
Q 900 100 562 350 
Q 225 600 100 1200 
L 550 1325 
z
" transform="scale(0.015625)"/>
       </defs>
       <use xlink:href="#SimHei-32"/>
       <use xlink:href="#SimHei-35" x="50"/>
       <use xlink:href="#SimHei-30" x="100"/>
      </g>
     </g>
    </g>
    <g id="xtick_3">
     <g id="line2d_3">
      <g>
       <use xlink:href="#m7e12b5f683" x="639.317176" y="512.64" style="stroke: #000000; stroke-width: 0.8"/>
      </g>
     </g>
     <g id="text_3">
      <!-- 500 -->
      <g transform="translate(631.817176 526.515)scale(0.1 -0.1)">
       <use xlink:href="#SimHei-35"/>
       <use xlink:href="#SimHei-30" x="50"/>
       <use xlink:href="#SimHei-30" x="100"/>
      </g>
     </g>
    </g>
    <g id="xtick_4">
     <g id="line2d_4">
      <g>
       <use xlink:href="#m7e12b5f683" x="814.771218" y="512.64" style="stroke: #000000; stroke-width: 0.8"/>
      </g>
     </g>
     <g id="text_4">
      <!-- 750 -->
      <g transform="translate(807.271218 526.515)scale(0.1 -0.1)">
       <defs>
        <path id="SimHei-37" d="M 850 150 
Q 1300 2050 2425 3925 
L 275 3925 
L 275 4375 
L 2950 4375 
L 2950 3950 
Q 1775 2050 1400 150 
L 850 150 
z
" transform="scale(0.015625)"/>
       </defs>
       <use xlink:href="#SimHei-37"/>
       <use xlink:href="#SimHei-35" x="50"/>
       <use xlink:href="#SimHei-30" x="100"/>
      </g>
     </g>
    </g>
    <g id="xtick_5">
     <g id="line2d_5">
      <g>
       <use xlink:href="#m7e12b5f683" x="990.22526" y="512.64" style="stroke: #000000; stroke-width: 0.8"/>
      </g>
     </g>
     <g id="text_5">
      <!-- 1000 -->
      <g transform="translate(980.22526 526.515)scale(0.1 -0.1)">
       <defs>
        <path id="SimHei-31" d="M 1400 3600 
Q 1075 3275 575 2975 
L 575 3450 
Q 1200 3875 1600 4450 
L 1900 4450 
L 1900 150 
L 1400 150 
L 1400 3600 
z
" transform="scale(0.015625)"/>
       </defs>
       <use xlink:href="#SimHei-31"/>
       <use xlink:href="#SimHei-30" x="50"/>
       <use xlink:href="#SimHei-30" x="100"/>
       <use xlink:href="#SimHei-30" x="150"/>
      </g>
     </g>
    </g>
    <g id="xtick_6">
     <g id="line2d_6">
      <g>
       <use xlink:href="#m7e12b5f683" x="1165.679303" y="512.64" style="stroke: #000000; stroke-width: 0.8"/>
      </g>
     </g>
     <g id="text_6">
      <!-- 1250 -->
      <g transform="translate(1155.679303 526.515)scale(0.1 -0.1)">
       <use xlink:href="#SimHei-31"/>
       <use xlink:href="#SimHei-32" x="50"/>
       <use xlink:href="#SimHei-35" x="100"/>
       <use xlink:href="#SimHei-30" x="150"/>
      </g>
     </g>
    </g>
    <g id="xtick_7">
     <g id="line2d_7">
      <g>
       <use xlink:href="#m7e12b5f683" x="1341.133345" y="512.64" style="stroke: #000000; stroke-width: 0.8"/>
      </g>
     </g>
     <g id="text_7">
      <!-- 1500 -->
      <g transform="translate(1331.133345 526.515)scale(0.1 -0.1)">
       <use xlink:href="#SimHei-31"/>
       <use xlink:href="#SimHei-35" x="50"/>
       <use xlink:href="#SimHei-30" x="100"/>
       <use xlink:href="#SimHei-30" x="150"/>
      </g>
     </g>
    </g>
    <g id="xtick_8">
     <g id="line2d_8">
      <g>
       <use xlink:href="#m7e12b5f683" x="1516.587387" y="512.64" style="stroke: #000000; stroke-width: 0.8"/>
      </g>
     </g>
     <g id="text_8">
      <!-- 1750 -->
      <g transform="translate(1506.587387 526.515)scale(0.1 -0.1)">
       <use xlink:href="#SimHei-31"/>
       <use xlink:href="#SimHei-37" x="50"/>
       <use xlink:href="#SimHei-35" x="100"/>
       <use xlink:href="#SimHei-30" x="150"/>
      </g>
     </g>
    </g>
   </g>
   <g id="matplotlib.axis_2">
    <g id="ytick_1">
     <g id="line2d_9">
      <defs>
       <path id="m73be935085" d="M 0 0 
L -3.5 0 
" style="stroke: #000000; stroke-width: 0.8"/>
      </defs>
      <g>
       <use xlink:href="#m73be935085" x="225" y="445.520964" style="stroke: #000000; stroke-width: 0.8"/>
      </g>
     </g>
     <g id="text_9">
      <!-- 50 -->
      <g transform="translate(208 448.958464)scale(0.1 -0.1)">
       <use xlink:href="#SimHei-35"/>
       <use xlink:href="#SimHei-30" x="50"/>
      </g>
     </g>
    </g>
    <g id="ytick_2">
     <g id="line2d_10">
      <g>
       <use xlink:href="#m73be935085" x="225" y="364.557108" style="stroke: #000000; stroke-width: 0.8"/>
      </g>
     </g>
     <g id="text_10">
      <!-- 100 -->
      <g transform="translate(203 367.994608)scale(0.1 -0.1)">
       <use xlink:href="#SimHei-31"/>
       <use xlink:href="#SimHei-30" x="50"/>
       <use xlink:href="#SimHei-30" x="100"/>
      </g>
     </g>
    </g>
    <g id="ytick_3">
     <g id="line2d_11">
      <g>
       <use xlink:href="#m73be935085" x="225" y="283.593253" style="stroke: #000000; stroke-width: 0.8"/>
      </g>
     </g>
     <g id="text_11">
      <!-- 150 -->
      <g transform="translate(203 287.030753)scale(0.1 -0.1)">
       <use xlink:href="#SimHei-31"/>
       <use xlink:href="#SimHei-35" x="50"/>
       <use xlink:href="#SimHei-30" x="100"/>
      </g>
     </g>
    </g>
    <g id="ytick_4">
     <g id="line2d_12">
      <g>
       <use xlink:href="#m73be935085" x="225" y="202.629398" style="stroke: #000000; stroke-width: 0.8"/>
      </g>
     </g>
     <g id="text_12">
      <!-- 200 -->
      <g transform="translate(203 206.066898)scale(0.1 -0.1)">
       <use xlink:href="#SimHei-32"/>
       <use xlink:href="#SimHei-30" x="50"/>
       <use xlink:href="#SimHei-30" x="100"/>
      </g>
     </g>
    </g>
    <g id="ytick_5">
     <g id="line2d_13">
      <g>
       <use xlink:href="#m73be935085" x="225" y="121.665542" style="stroke: #000000; stroke-width: 0.8"/>
      </g>
     </g>
     <g id="text_13">
      <!-- 250 -->
      <g transform="translate(203 125.103042)scale(0.1 -0.1)">
       <use xlink:href="#SimHei-32"/>
       <use xlink:href="#SimHei-35" x="50"/>
       <use xlink:href="#SimHei-30" x="100"/>
      </g>
     </g>
    </g>
   </g>
   <g id="line2d_14">
    <path d="M 288.409091 254.446265 
L 289.110907 257.684819 
L 289.812723 231.776386 
L 290.514539 293.308916 
L 291.216356 422.851084 
L 291.918172 455.236627 
L 292.619988 424.470361 
L 293.321804 440.663133 
L 294.02362 442.28241 
L 294.725436 416.373976 
L 295.427253 427.708916 
L 296.129069 351.602892 
L 296.830885 409.896867 
L 297.532701 477.906506 
L 298.234517 456.855904 
L 298.936333 359.699277 
L 299.63815 322.455904 
L 300.339966 191.294458 
L 301.041782 270.639036 
L 301.743598 147.573976 
L 302.445414 409.896867 
L 303.14723 417.993253 
L 303.849047 456.855904 
L 304.550863 311.120964 
L 305.252679 442.28241 
L 305.954495 471.429398 
L 306.656311 414.754699 
L 307.358127 398.561928 
L 308.059944 142.716145 
L 308.76176 235.01494 
L 309.463576 382.369157 
L 310.165392 154.051084 
L 310.867208 409.896867 
L 311.569025 463.333012 
L 312.270841 476.287229 
L 312.972657 486.002892 
L 313.674473 482.764337 
L 314.376289 432.566747 
L 315.078105 424.470361 
L 315.779922 464.952289 
L 316.481738 447.140241 
L 317.183554 468.190843 
L 317.88537 463.333012 
L 318.587186 432.566747 
L 319.289002 460.094458 
L 319.990819 476.287229 
L 320.692635 463.333012 
L 321.394451 468.190843 
L 322.096267 398.561928 
L 322.798083 207.487229 
L 324.201716 401.800482 
L 324.903532 343.506506 
L 325.605348 346.74506 
L 326.307164 450.378795 
L 327.00898 413.135422 
L 327.710796 320.836627 
L 328.412613 351.602892 
L 329.114429 460.094458 
L 329.816245 409.896867 
L 330.518061 430.94747 
L 331.219877 466.571566 
L 331.921693 437.424578 
L 332.62351 455.236627 
L 333.325326 461.713735 
L 334.027142 450.378795 
L 334.728958 353.222169 
L 335.430774 201.01012 
L 336.13259 400.181205 
L 336.834407 461.713735 
L 337.536223 432.566747 
L 338.238039 354.841446 
L 338.939855 343.506506 
L 339.641671 374.272771 
L 340.343487 354.841446 
L 341.045304 233.395663 
L 341.74712 330.552289 
L 343.150752 430.94747 
L 343.852568 421.231807 
L 344.554384 439.043855 
L 345.958017 345.125783 
L 346.659833 432.566747 
L 347.361649 437.424578 
L 348.765281 317.598072 
L 349.467098 395.323373 
L 350.168914 417.993253 
L 350.87073 424.470361 
L 351.572546 416.373976 
L 352.274362 406.658313 
L 352.976178 385.607711 
L 353.677995 445.520964 
L 354.379811 432.566747 
L 355.081627 385.607711 
L 355.783443 380.74988 
L 356.485259 388.846265 
L 357.187076 414.754699 
L 357.888892 398.561928 
L 358.590708 419.61253 
L 359.292524 392.084819 
L 359.99434 398.561928 
L 360.696156 424.470361 
L 361.397973 231.776386 
L 362.099789 367.795663 
L 362.801605 451.998072 
L 363.503421 440.663133 
L 364.907053 406.658313 
L 365.60887 361.318554 
L 367.012502 437.424578 
L 367.714318 460.094458 
L 368.416134 388.846265 
L 369.11795 403.419759 
L 369.819767 361.318554 
L 370.521583 390.465542 
L 371.223399 328.933012 
L 371.925215 335.41012 
L 372.627031 416.373976 
L 373.328847 411.516145 
L 374.030664 424.470361 
L 374.73248 414.754699 
L 375.434296 414.754699 
L 376.136112 359.699277 
L 376.837928 417.993253 
L 377.539744 434.186024 
L 378.241561 434.186024 
L 378.943377 338.648675 
L 379.645193 390.465542 
L 380.347009 361.318554 
L 381.048825 387.226988 
L 381.750641 387.226988 
L 382.452458 383.988434 
L 383.154274 434.186024 
L 383.85609 427.708916 
L 385.259722 324.075181 
L 385.961538 341.887229 
L 386.663355 445.520964 
L 387.365171 453.617349 
L 388.066987 341.887229 
L 388.768803 259.304096 
L 389.470619 220.441446 
L 390.172435 281.973976 
L 390.874252 322.455904 
L 391.576068 311.120964 
L 392.277884 408.27759 
L 392.9797 450.378795 
L 393.681516 422.851084 
L 394.383332 427.708916 
L 395.085149 395.323373 
L 395.786965 434.186024 
L 397.190597 392.084819 
L 397.892413 434.186024 
L 398.59423 448.759518 
L 399.296046 458.475181 
L 399.997862 455.236627 
L 400.699678 406.658313 
L 401.401494 330.552289 
L 402.10331 301.405301 
L 402.805127 406.658313 
L 403.506943 463.333012 
L 404.208759 435.805301 
L 404.910575 445.520964 
L 405.612391 432.566747 
L 406.314207 442.28241 
L 407.016024 450.378795 
L 407.71784 460.094458 
L 408.419656 443.901687 
L 409.121472 400.181205 
L 409.823288 456.855904 
L 410.525104 461.713735 
L 411.226921 468.190843 
L 411.928737 332.171566 
L 412.630553 315.978795 
L 413.332369 383.988434 
L 414.034185 429.328193 
L 414.736001 416.373976 
L 415.437818 345.125783 
L 416.139634 414.754699 
L 416.84145 442.28241 
L 417.543266 406.658313 
L 418.245082 416.373976 
L 418.946898 460.094458 
L 419.648715 453.617349 
L 420.350531 320.836627 
L 421.052347 252.826988 
L 422.455979 430.94747 
L 423.157795 353.222169 
L 423.859612 434.186024 
L 424.561428 374.272771 
L 425.263244 451.998072 
L 425.96506 466.571566 
L 426.666876 456.855904 
L 427.368692 453.617349 
L 428.070509 464.952289 
L 428.772325 464.952289 
L 429.474141 460.094458 
L 430.175957 448.759518 
L 430.877773 427.708916 
L 431.579589 311.120964 
L 432.281406 406.658313 
L 432.983222 414.754699 
L 433.685038 406.658313 
L 434.386854 464.952289 
L 435.08867 473.048675 
L 435.790486 484.383614 
L 436.492303 471.429398 
L 437.194119 387.226988 
L 437.895935 340.267952 
L 438.597751 414.754699 
L 439.299567 437.424578 
L 440.001384 466.571566 
L 440.7032 456.855904 
L 441.405016 409.896867 
L 442.106832 424.470361 
L 442.808648 435.805301 
L 443.510464 405.039036 
L 444.212281 453.617349 
L 445.615913 432.566747 
L 446.317729 461.713735 
L 447.019545 430.94747 
L 447.721361 466.571566 
L 448.423178 463.333012 
L 449.124994 388.846265 
L 449.82681 411.516145 
L 450.528626 372.653494 
L 451.230442 393.704096 
L 451.932258 362.937831 
L 452.634075 439.043855 
L 453.335891 437.424578 
L 454.037707 430.94747 
L 454.739523 463.333012 
L 455.441339 461.713735 
L 456.143155 443.901687 
L 456.844972 401.800482 
L 457.546788 427.708916 
L 458.248604 304.643855 
L 458.95042 332.171566 
L 459.652236 414.754699 
L 460.354052 432.566747 
L 461.055869 426.089639 
L 461.757685 440.663133 
L 462.459501 419.61253 
L 463.161317 437.424578 
L 463.863133 450.378795 
L 464.564949 458.475181 
L 465.266766 456.855904 
L 465.968582 460.094458 
L 466.670398 440.663133 
L 467.372214 453.617349 
L 468.07403 456.855904 
L 468.775846 434.186024 
L 469.477663 382.369157 
L 470.179479 445.520964 
L 470.881295 451.998072 
L 471.583111 482.764337 
L 472.284927 458.475181 
L 472.986743 411.516145 
L 473.68856 388.846265 
L 475.092192 451.998072 
L 475.794008 398.561928 
L 476.495824 450.378795 
L 477.19764 448.759518 
L 477.899457 398.561928 
L 478.601273 390.465542 
L 479.303089 435.805301 
L 480.004905 430.94747 
L 480.706721 419.61253 
L 481.408538 426.089639 
L 482.110354 443.901687 
L 482.81217 442.28241 
L 483.513986 421.231807 
L 484.215802 430.94747 
L 484.917618 421.231807 
L 485.619435 413.135422 
L 486.321251 413.135422 
L 487.023067 317.598072 
L 487.724883 298.166747 
L 488.426699 442.28241 
L 489.128515 458.475181 
L 489.830332 445.520964 
L 490.532148 387.226988 
L 491.233964 372.653494 
L 491.93578 416.373976 
L 493.339412 432.566747 
L 494.041229 437.424578 
L 494.743045 401.800482 
L 495.444861 408.27759 
L 496.146677 439.043855 
L 496.848493 442.28241 
L 497.550309 424.470361 
L 498.252126 396.942651 
L 498.953942 375.892048 
L 499.655758 400.181205 
L 500.357574 429.328193 
L 501.05939 426.089639 
L 501.761206 437.424578 
L 502.463023 244.730602 
L 503.164839 416.373976 
L 503.866655 461.713735 
L 504.568471 445.520964 
L 505.270287 385.607711 
L 505.972103 401.800482 
L 506.67392 241.492048 
L 507.375736 424.470361 
L 508.077552 411.516145 
L 508.779368 426.089639 
L 509.481184 383.988434 
L 510.183 270.639036 
L 510.884817 390.465542 
L 511.586633 440.663133 
L 512.288449 445.520964 
L 512.990265 434.186024 
L 513.692081 366.176386 
L 514.393897 440.663133 
L 515.095714 460.094458 
L 515.79753 447.140241 
L 516.499346 422.851084 
L 517.201162 451.998072 
L 517.902978 395.323373 
L 518.604794 422.851084 
L 519.306611 437.424578 
L 520.008427 379.130602 
L 520.710243 421.231807 
L 521.412059 392.084819 
L 522.113875 349.983614 
L 522.815692 354.841446 
L 523.517508 382.369157 
L 524.219324 440.663133 
L 524.92114 396.942651 
L 525.622956 337.029398 
L 526.324772 366.176386 
L 527.026589 372.653494 
L 527.728405 338.648675 
L 528.430221 351.602892 
L 529.132037 309.501687 
L 529.833853 398.561928 
L 530.535669 411.516145 
L 531.237486 369.41494 
L 531.939302 390.465542 
L 532.641118 385.607711 
L 533.342934 358.08 
L 534.04475 385.607711 
L 534.746566 254.446265 
L 535.448383 421.231807 
L 536.150199 463.333012 
L 536.852015 463.333012 
L 537.553831 375.892048 
L 538.255647 222.060723 
L 538.957463 244.730602 
L 539.65928 223.68 
L 540.361096 424.470361 
L 541.062912 358.08 
L 541.764728 312.740241 
L 542.466544 217.202892 
L 543.16836 346.74506 
L 543.870177 312.740241 
L 544.571993 435.805301 
L 545.273809 374.272771 
L 545.975625 217.202892 
L 546.677441 141.096867 
L 547.379257 111.94988 
L 548.081074 461.713735 
L 548.78289 473.048675 
L 549.484706 471.429398 
L 550.186522 369.41494 
L 550.888338 294.928193 
L 551.590154 351.602892 
L 552.291971 330.552289 
L 552.993787 314.359518 
L 553.695603 424.470361 
L 554.397419 309.501687 
L 555.099235 260.923373 
L 555.801051 296.54747 
L 556.502868 288.451084 
L 557.204684 278.735422 
L 557.9065 301.405301 
L 558.608316 409.896867 
L 559.310132 471.429398 
L 560.011948 486.002892 
L 560.713765 375.892048 
L 561.415581 443.901687 
L 562.117397 466.571566 
L 562.819213 461.713735 
L 563.521029 442.28241 
L 564.222845 178.340241 
L 564.924662 312.740241 
L 565.626478 369.41494 
L 566.328294 294.928193 
L 567.03011 408.27759 
L 567.731926 458.475181 
L 568.433743 398.561928 
L 569.135559 361.318554 
L 569.837375 188.055904 
L 570.539191 421.231807 
L 571.241007 401.800482 
L 571.942823 401.800482 
L 572.64464 290.070361 
L 573.346456 267.400482 
L 574.048272 372.653494 
L 574.750088 448.759518 
L 575.451904 458.475181 
L 576.15372 396.942651 
L 576.855537 281.973976 
L 577.557353 375.892048 
L 578.259169 396.942651 
L 578.960985 460.094458 
L 579.662801 413.135422 
L 580.364617 463.333012 
L 581.066434 476.287229 
L 581.76825 361.318554 
L 582.470066 293.308916 
L 583.171882 348.364337 
L 583.873698 447.140241 
L 584.575514 464.952289 
L 585.277331 466.571566 
L 585.979147 450.378795 
L 586.680963 466.571566 
L 587.382779 432.566747 
L 588.084595 453.617349 
L 588.786411 424.470361 
L 589.488228 340.267952 
L 590.190044 320.836627 
L 590.89186 294.928193 
L 591.593676 405.039036 
L 592.295492 448.759518 
L 592.997308 439.043855 
L 593.699125 400.181205 
L 594.400941 353.222169 
L 595.102757 380.74988 
L 595.804573 303.024578 
L 596.506389 309.501687 
L 597.208205 422.851084 
L 597.910022 455.236627 
L 598.611838 448.759518 
L 599.313654 440.663133 
L 600.01547 443.901687 
L 600.717286 353.222169 
L 601.419102 332.171566 
L 602.120919 430.94747 
L 602.822735 377.511325 
L 603.524551 390.465542 
L 604.226367 424.470361 
L 604.928183 375.892048 
L 605.629999 387.226988 
L 606.331816 403.419759 
L 607.033632 453.617349 
L 607.735448 453.617349 
L 609.13908 447.140241 
L 609.840897 422.851084 
L 610.542713 424.470361 
L 611.244529 398.561928 
L 611.946345 408.27759 
L 613.349977 354.841446 
L 614.051794 354.841446 
L 614.75361 375.892048 
L 615.455426 388.846265 
L 616.157242 257.684819 
L 616.859058 424.470361 
L 617.560874 411.516145 
L 618.262691 341.887229 
L 618.964507 359.699277 
L 619.666323 385.607711 
L 620.368139 337.029398 
L 621.069955 379.130602 
L 621.771771 400.181205 
L 622.473588 367.795663 
L 623.175404 416.373976 
L 623.87722 367.795663 
L 624.579036 419.61253 
L 625.280852 411.516145 
L 625.982668 400.181205 
L 626.684485 333.790843 
L 627.386301 426.089639 
L 628.088117 417.993253 
L 628.789933 401.800482 
L 629.491749 430.94747 
L 630.193565 448.759518 
L 630.895382 419.61253 
L 631.597198 455.236627 
L 632.299014 408.27759 
L 633.00083 390.465542 
L 633.702646 400.181205 
L 634.404462 405.039036 
L 635.106279 413.135422 
L 635.808095 426.089639 
L 636.509911 396.942651 
L 637.211727 351.602892 
L 638.615359 426.089639 
L 639.317176 419.61253 
L 640.018992 430.94747 
L 640.720808 424.470361 
L 641.422624 427.708916 
L 642.826256 424.470361 
L 643.528073 434.186024 
L 644.229889 437.424578 
L 644.931705 419.61253 
L 645.633521 417.993253 
L 646.335337 396.942651 
L 647.73897 455.236627 
L 648.440786 440.663133 
L 649.142602 351.602892 
L 649.844418 311.120964 
L 650.546234 437.424578 
L 651.248051 461.713735 
L 651.949867 388.846265 
L 652.651683 439.043855 
L 653.353499 374.272771 
L 654.055315 348.364337 
L 654.757131 367.795663 
L 655.458948 409.896867 
L 656.160764 388.846265 
L 656.86258 426.089639 
L 657.564396 429.328193 
L 658.266212 430.94747 
L 658.968028 403.419759 
L 659.669845 427.708916 
L 660.371661 413.135422 
L 661.073477 440.663133 
L 661.775293 405.039036 
L 663.178925 380.74988 
L 663.880742 442.28241 
L 664.582558 458.475181 
L 665.284374 448.759518 
L 665.98619 432.566747 
L 666.688006 380.74988 
L 667.389822 435.805301 
L 668.091639 403.419759 
L 668.793455 356.460723 
L 669.495271 385.607711 
L 670.197087 443.901687 
L 670.898903 451.998072 
L 671.600719 435.805301 
L 673.004352 461.713735 
L 674.407984 481.14506 
L 675.1098 466.571566 
L 675.811616 356.460723 
L 676.513433 338.648675 
L 677.215249 443.901687 
L 677.917065 463.333012 
L 678.618881 445.520964 
L 680.022513 469.81012 
L 680.72433 468.190843 
L 681.426146 429.328193 
L 682.127962 432.566747 
L 682.829778 439.043855 
L 683.531594 417.993253 
L 684.23341 387.226988 
L 684.935227 325.694458 
L 685.637043 375.892048 
L 686.338859 359.699277 
L 687.040675 353.222169 
L 687.742491 372.653494 
L 688.444307 374.272771 
L 689.146124 374.272771 
L 689.84794 364.557108 
L 690.549756 366.176386 
L 691.251572 361.318554 
L 691.953388 377.511325 
L 692.655205 456.855904 
L 693.357021 469.81012 
L 694.058837 474.667952 
L 694.760653 481.14506 
L 695.462469 477.906506 
L 696.164285 469.81012 
L 696.866102 448.759518 
L 697.567918 398.561928 
L 698.269734 413.135422 
L 698.97155 450.378795 
L 699.673366 445.520964 
L 700.375182 417.993253 
L 701.076999 409.896867 
L 701.778815 439.043855 
L 702.480631 427.708916 
L 703.182447 466.571566 
L 703.884263 463.333012 
L 704.586079 456.855904 
L 705.287896 451.998072 
L 705.989712 424.470361 
L 706.691528 377.511325 
L 707.393344 254.446265 
L 708.09516 293.308916 
L 708.796976 341.887229 
L 709.498793 369.41494 
L 710.200609 406.658313 
L 710.902425 400.181205 
L 711.604241 346.74506 
L 712.306057 324.075181 
L 713.007873 330.552289 
L 713.70969 408.27759 
L 714.411506 413.135422 
L 715.113322 432.566747 
L 715.815138 434.186024 
L 717.21877 417.993253 
L 717.920587 426.089639 
L 718.622403 409.896867 
L 720.026035 448.759518 
L 720.727851 460.094458 
L 721.429667 463.333012 
L 722.131484 430.94747 
L 722.8333 429.328193 
L 723.535116 450.378795 
L 724.236932 411.516145 
L 724.938748 417.993253 
L 725.640564 443.901687 
L 726.342381 432.566747 
L 727.044197 458.475181 
L 727.746013 434.186024 
L 729.149645 409.896867 
L 729.851461 424.470361 
L 730.553278 461.713735 
L 731.255094 468.190843 
L 731.95691 426.089639 
L 732.658726 403.419759 
L 733.360542 396.942651 
L 734.062359 432.566747 
L 734.764175 451.998072 
L 735.465991 450.378795 
L 736.167807 429.328193 
L 736.869623 448.759518 
L 737.571439 366.176386 
L 738.273256 379.130602 
L 738.975072 398.561928 
L 739.676888 343.506506 
L 740.378704 311.120964 
L 741.08052 290.070361 
L 741.782336 427.708916 
L 742.484153 416.373976 
L 743.185969 434.186024 
L 743.887785 408.27759 
L 744.589601 414.754699 
L 745.291417 419.61253 
L 745.993233 413.135422 
L 746.69505 345.125783 
L 747.396866 414.754699 
L 748.098682 419.61253 
L 748.800498 416.373976 
L 749.502314 417.993253 
L 750.20413 374.272771 
L 750.905947 380.74988 
L 751.607763 432.566747 
L 752.309579 440.663133 
L 753.011395 456.855904 
L 753.713211 439.043855 
L 754.415027 275.496867 
L 755.116844 320.836627 
L 755.81866 439.043855 
L 756.520476 430.94747 
L 757.222292 460.094458 
L 758.625924 340.267952 
L 759.327741 349.983614 
L 760.731373 443.901687 
L 761.433189 405.039036 
L 762.135005 416.373976 
L 762.836821 277.116145 
L 763.538638 285.21253 
L 764.94227 435.805301 
L 765.644086 453.617349 
L 766.345902 447.140241 
L 767.047718 422.851084 
L 767.749535 450.378795 
L 768.451351 451.998072 
L 769.153167 443.901687 
L 769.854983 466.571566 
L 771.258615 411.516145 
L 771.960432 432.566747 
L 772.662248 377.511325 
L 773.364064 346.74506 
L 774.06588 238.253494 
L 774.767696 380.74988 
L 775.469513 369.41494 
L 776.171329 369.41494 
L 776.873145 411.516145 
L 777.574961 359.699277 
L 778.276777 294.928193 
L 779.68041 447.140241 
L 781.084042 426.089639 
L 781.785858 356.460723 
L 782.487674 417.993253 
L 783.18949 388.846265 
L 783.891307 179.959518 
L 784.593123 89.28 
L 785.294939 349.983614 
L 785.996755 434.186024 
L 786.698571 417.993253 
L 787.400387 442.28241 
L 788.102204 408.27759 
L 788.80402 241.492048 
L 789.505836 325.694458 
L 790.207652 142.716145 
L 790.909468 405.039036 
L 791.611284 162.14747 
L 792.313101 293.308916 
L 793.716733 443.901687 
L 794.418549 401.800482 
L 795.120365 338.648675 
L 795.822181 235.01494 
L 796.523998 395.323373 
L 797.225814 314.359518 
L 797.92763 192.913735 
L 798.629446 249.588434 
L 799.331262 445.520964 
L 800.033078 424.470361 
L 800.734895 361.318554 
L 801.436711 383.988434 
L 802.138527 285.21253 
L 802.840343 385.607711 
L 803.542159 422.851084 
L 804.243975 434.186024 
L 804.945792 283.593253 
L 805.647608 194.533012 
L 807.05124 251.207711 
L 807.753056 356.460723 
L 808.454872 235.01494 
L 809.156689 340.267952 
L 809.858505 464.952289 
L 810.560321 482.764337 
L 811.262137 440.663133 
L 811.963953 426.089639 
L 812.665769 417.993253 
L 813.367586 422.851084 
L 814.069402 406.658313 
L 814.771218 427.708916 
L 815.473034 468.190843 
L 816.17485 464.952289 
L 817.578483 405.039036 
L 818.280299 421.231807 
L 818.982115 341.887229 
L 820.385747 447.140241 
L 821.087564 259.304096 
L 821.78938 387.226988 
L 822.491196 396.942651 
L 823.193012 330.552289 
L 823.894828 366.176386 
L 824.596644 421.231807 
L 825.298461 447.140241 
L 826.000277 460.094458 
L 826.702093 409.896867 
L 827.403909 448.759518 
L 828.105725 453.617349 
L 828.807541 445.520964 
L 829.509358 405.039036 
L 830.211174 379.130602 
L 830.91299 371.034217 
L 831.614806 343.506506 
L 832.316622 395.323373 
L 833.018438 430.94747 
L 833.720255 426.089639 
L 834.422071 432.566747 
L 835.123887 424.470361 
L 835.825703 371.034217 
L 836.527519 390.465542 
L 837.229335 374.272771 
L 837.931152 400.181205 
L 838.632968 440.663133 
L 839.334784 380.74988 
L 840.0366 374.272771 
L 840.738416 443.901687 
L 841.440232 358.08 
L 842.142049 338.648675 
L 842.843865 364.557108 
L 843.545681 464.952289 
L 844.247497 447.140241 
L 844.949313 453.617349 
L 846.352946 354.841446 
L 847.054762 400.181205 
L 847.756578 375.892048 
L 848.458394 421.231807 
L 849.16021 424.470361 
L 849.862026 440.663133 
L 850.563843 314.359518 
L 851.265659 432.566747 
L 851.967475 411.516145 
L 852.669291 408.27759 
L 853.371107 435.805301 
L 854.072923 434.186024 
L 854.77474 439.043855 
L 855.476556 429.328193 
L 856.178372 413.135422 
L 856.880188 311.120964 
L 857.582004 330.552289 
L 858.28382 382.369157 
L 858.985637 364.557108 
L 859.687453 416.373976 
L 860.389269 340.267952 
L 861.091085 405.039036 
L 861.792901 401.800482 
L 862.494718 447.140241 
L 863.196534 448.759518 
L 863.89835 447.140241 
L 864.600166 395.323373 
L 865.301982 419.61253 
L 866.003798 427.708916 
L 866.705615 379.130602 
L 867.407431 422.851084 
L 868.109247 416.373976 
L 869.512879 275.496867 
L 870.214695 351.602892 
L 870.916512 448.759518 
L 871.618328 398.561928 
L 872.320144 434.186024 
L 873.02196 430.94747 
L 873.723776 445.520964 
L 874.425592 395.323373 
L 875.127409 303.024578 
L 875.829225 383.988434 
L 876.531041 385.607711 
L 877.934673 439.043855 
L 878.636489 409.896867 
L 879.338306 330.552289 
L 880.040122 265.781205 
L 880.741938 306.263133 
L 881.443754 388.846265 
L 882.14557 429.328193 
L 882.847386 411.516145 
L 883.549203 377.511325 
L 884.251019 421.231807 
L 884.952835 367.795663 
L 885.654651 251.207711 
L 886.356467 424.470361 
L 887.058283 417.993253 
L 887.7601 450.378795 
L 888.461916 325.694458 
L 889.163732 353.222169 
L 889.865548 371.034217 
L 890.567364 435.805301 
L 891.26918 451.998072 
L 891.970997 409.896867 
L 892.672813 416.373976 
L 893.374629 400.181205 
L 894.076445 380.74988 
L 894.778261 437.424578 
L 895.480077 450.378795 
L 896.88371 362.937831 
L 897.585526 346.74506 
L 898.287342 349.983614 
L 898.989158 311.120964 
L 899.690974 440.663133 
L 900.392791 450.378795 
L 901.094607 416.373976 
L 901.796423 398.561928 
L 902.498239 377.511325 
L 903.200055 424.470361 
L 903.901872 414.754699 
L 904.603688 443.901687 
L 905.305504 434.186024 
L 906.00732 435.805301 
L 906.709136 430.94747 
L 907.410952 427.708916 
L 908.814585 455.236627 
L 909.516401 448.759518 
L 910.218217 403.419759 
L 910.920033 456.855904 
L 911.621849 445.520964 
L 912.323666 392.084819 
L 913.025482 379.130602 
L 913.727298 301.405301 
L 914.429114 353.222169 
L 915.13093 424.470361 
L 915.832746 443.901687 
L 916.534563 481.14506 
L 917.236379 409.896867 
L 917.938195 435.805301 
L 918.640011 387.226988 
L 919.341827 419.61253 
L 920.043643 432.566747 
L 920.74546 403.419759 
L 921.447276 429.328193 
L 922.149092 401.800482 
L 922.850908 451.998072 
L 923.552724 429.328193 
L 924.25454 445.520964 
L 924.956357 468.190843 
L 925.658173 409.896867 
L 926.359989 411.516145 
L 927.061805 445.520964 
L 927.763621 453.617349 
L 928.465437 476.287229 
L 929.167254 486.002892 
L 929.86907 484.383614 
L 930.570886 476.287229 
L 931.272702 466.571566 
L 931.974518 398.561928 
L 932.676334 375.892048 
L 933.378151 403.419759 
L 934.079967 379.130602 
L 934.781783 393.704096 
L 935.483599 335.41012 
L 936.185415 427.708916 
L 936.887231 424.470361 
L 937.589048 388.846265 
L 938.290864 369.41494 
L 938.99268 353.222169 
L 939.694496 375.892048 
L 940.396312 390.465542 
L 941.098128 442.28241 
L 941.799945 377.511325 
L 942.501761 387.226988 
L 943.203577 348.364337 
L 943.905393 325.694458 
L 944.607209 427.708916 
L 945.309026 477.906506 
L 946.010842 474.667952 
L 946.712658 466.571566 
L 947.414474 469.81012 
L 948.11629 450.378795 
L 948.818106 464.952289 
L 950.221739 481.14506 
L 950.923555 487.622169 
L 951.625371 484.383614 
L 952.327187 489.241446 
L 953.029003 481.14506 
L 953.73082 484.383614 
L 954.432636 481.14506 
L 955.134452 451.998072 
L 955.836268 468.190843 
L 956.538084 469.81012 
L 957.2399 468.190843 
L 957.941717 464.952289 
L 958.643533 450.378795 
L 959.345349 427.708916 
L 960.047165 451.998072 
L 960.748981 445.520964 
L 961.450797 432.566747 
L 962.152614 422.851084 
L 962.85443 448.759518 
L 963.556246 451.998072 
L 964.258062 442.28241 
L 964.959878 401.800482 
L 965.661694 413.135422 
L 966.363511 414.754699 
L 967.065327 380.74988 
L 967.767143 358.08 
L 968.468959 341.887229 
L 969.170775 343.506506 
L 969.872591 421.231807 
L 970.574408 445.520964 
L 971.276224 432.566747 
L 971.97804 432.566747 
L 972.679856 374.272771 
L 973.381672 341.887229 
L 974.083488 401.800482 
L 974.785305 419.61253 
L 975.487121 426.089639 
L 976.188937 424.470361 
L 976.890753 461.713735 
L 977.592569 482.764337 
L 978.294385 492.48 
L 978.996202 479.525783 
L 979.698018 435.805301 
L 980.399834 453.617349 
L 981.10165 455.236627 
L 981.803466 464.952289 
L 982.505282 464.952289 
L 983.207099 453.617349 
L 983.908915 424.470361 
L 984.610731 421.231807 
L 985.312547 458.475181 
L 986.71618 486.002892 
L 987.417996 473.048675 
L 988.821628 408.27759 
L 989.523444 471.429398 
L 990.22526 451.998072 
L 990.927077 461.713735 
L 991.628893 439.043855 
L 992.330709 427.708916 
L 993.032525 451.998072 
L 993.734341 453.617349 
L 994.436157 460.094458 
L 995.83979 460.094458 
L 996.541606 443.901687 
L 997.243422 445.520964 
L 997.945238 448.759518 
L 998.647054 458.475181 
L 999.348871 411.516145 
L 1000.752503 456.855904 
L 1001.454319 445.520964 
L 1002.156135 468.190843 
L 1002.857951 473.048675 
L 1003.559768 481.14506 
L 1004.261584 453.617349 
L 1004.9634 461.713735 
L 1005.665216 445.520964 
L 1006.367032 456.855904 
L 1007.068848 464.952289 
L 1007.770665 463.333012 
L 1008.472481 464.952289 
L 1009.174297 463.333012 
L 1009.876113 473.048675 
L 1010.577929 464.952289 
L 1011.279745 451.998072 
L 1011.981562 392.084819 
L 1012.683378 374.272771 
L 1013.385194 377.511325 
L 1014.08701 375.892048 
L 1014.788826 442.28241 
L 1015.490642 461.713735 
L 1016.192459 468.190843 
L 1016.894275 422.851084 
L 1017.596091 408.27759 
L 1018.297907 427.708916 
L 1018.999723 408.27759 
L 1019.701539 338.648675 
L 1020.403356 434.186024 
L 1021.105172 463.333012 
L 1021.806988 476.287229 
L 1023.21062 296.54747 
L 1023.912436 429.328193 
L 1024.614253 451.998072 
L 1025.316069 469.81012 
L 1026.017885 474.667952 
L 1026.719701 416.373976 
L 1027.421517 426.089639 
L 1028.123334 448.759518 
L 1028.82515 324.075181 
L 1029.526966 377.511325 
L 1030.228782 456.855904 
L 1030.930598 411.516145 
L 1031.632414 314.359518 
L 1032.334231 445.520964 
L 1033.036047 455.236627 
L 1034.439679 264.161928 
L 1035.141495 432.566747 
L 1035.843311 320.836627 
L 1036.545128 257.684819 
L 1037.246944 324.075181 
L 1037.94876 474.667952 
L 1038.650576 474.667952 
L 1039.352392 443.901687 
L 1040.054208 442.28241 
L 1040.756025 463.333012 
L 1041.457841 395.323373 
L 1042.159657 236.634217 
L 1042.861473 285.21253 
L 1043.563289 435.805301 
L 1044.265105 379.130602 
L 1044.966922 426.089639 
L 1045.668738 456.855904 
L 1046.370554 359.699277 
L 1047.07237 239.872771 
L 1047.774186 461.713735 
L 1048.476002 479.525783 
L 1049.177819 474.667952 
L 1049.879635 451.998072 
L 1050.581451 443.901687 
L 1051.283267 392.084819 
L 1051.985083 403.419759 
L 1052.686899 417.993253 
L 1053.388716 437.424578 
L 1054.090532 364.557108 
L 1054.792348 314.359518 
L 1055.494164 408.27759 
L 1056.19598 455.236627 
L 1056.897796 471.429398 
L 1057.599613 471.429398 
L 1058.301429 358.08 
L 1059.003245 388.846265 
L 1059.705061 351.602892 
L 1060.406877 450.378795 
L 1061.108693 409.896867 
L 1061.81051 319.217349 
L 1062.512326 455.236627 
L 1063.214142 473.048675 
L 1063.915958 477.906506 
L 1064.617774 434.186024 
L 1065.31959 447.140241 
L 1066.021407 358.08 
L 1066.723223 366.176386 
L 1067.425039 445.520964 
L 1068.126855 416.373976 
L 1068.828671 460.094458 
L 1069.530487 461.713735 
L 1070.232304 405.039036 
L 1070.93412 405.039036 
L 1071.635936 401.800482 
L 1072.337752 424.470361 
L 1073.039568 396.942651 
L 1073.741385 456.855904 
L 1074.443201 461.713735 
L 1075.145017 445.520964 
L 1075.846833 443.901687 
L 1076.548649 482.764337 
L 1077.250465 413.135422 
L 1077.952282 286.831807 
L 1078.654098 358.08 
L 1079.355914 463.333012 
L 1080.05773 468.190843 
L 1080.759546 372.653494 
L 1081.461362 424.470361 
L 1082.163179 432.566747 
L 1082.864995 385.607711 
L 1083.566811 393.704096 
L 1084.268627 380.74988 
L 1084.970443 375.892048 
L 1085.672259 434.186024 
L 1086.374076 396.942651 
L 1087.075892 461.713735 
L 1087.777708 435.805301 
L 1088.479524 401.800482 
L 1089.18134 450.378795 
L 1089.883156 413.135422 
L 1090.584973 346.74506 
L 1091.286789 426.089639 
L 1092.690421 277.116145 
L 1093.392237 411.516145 
L 1094.094053 427.708916 
L 1094.79587 405.039036 
L 1095.497686 421.231807 
L 1096.199502 414.754699 
L 1096.901318 398.561928 
L 1097.603134 379.130602 
L 1098.30495 434.186024 
L 1099.006767 432.566747 
L 1099.708583 424.470361 
L 1100.410399 362.937831 
L 1101.112215 382.369157 
L 1101.814031 405.039036 
L 1102.515847 447.140241 
L 1103.217664 435.805301 
L 1103.91948 443.901687 
L 1104.621296 440.663133 
L 1105.323112 450.378795 
L 1106.024928 442.28241 
L 1106.726744 448.759518 
L 1107.428561 439.043855 
L 1108.130377 430.94747 
L 1108.832193 382.369157 
L 1109.534009 461.713735 
L 1110.235825 461.713735 
L 1110.937641 437.424578 
L 1111.639458 366.176386 
L 1112.341274 356.460723 
L 1113.744906 414.754699 
L 1114.446722 390.465542 
L 1115.148539 429.328193 
L 1115.850355 414.754699 
L 1117.253987 348.364337 
L 1117.955803 364.557108 
L 1119.359436 422.851084 
L 1120.061252 371.034217 
L 1120.763068 427.708916 
L 1121.464884 395.323373 
L 1122.1667 443.901687 
L 1122.868516 456.855904 
L 1123.570333 403.419759 
L 1124.272149 380.74988 
L 1124.973965 419.61253 
L 1125.675781 409.896867 
L 1126.377597 398.561928 
L 1127.079413 421.231807 
L 1127.78123 406.658313 
L 1128.483046 383.988434 
L 1129.184862 395.323373 
L 1129.886678 400.181205 
L 1130.588494 411.516145 
L 1131.29031 419.61253 
L 1131.992127 403.419759 
L 1132.693943 393.704096 
L 1133.395759 422.851084 
L 1134.097575 440.663133 
L 1134.799391 435.805301 
L 1135.501207 396.942651 
L 1136.203024 366.176386 
L 1136.90484 374.272771 
L 1137.606656 434.186024 
L 1138.308472 458.475181 
L 1139.010288 447.140241 
L 1139.712104 453.617349 
L 1140.413921 421.231807 
L 1141.115737 322.455904 
L 1141.817553 286.831807 
L 1142.519369 408.27759 
L 1143.221185 417.993253 
L 1143.923001 354.841446 
L 1144.624818 362.937831 
L 1145.326634 414.754699 
L 1146.02845 387.226988 
L 1146.730266 375.892048 
L 1147.432082 426.089639 
L 1148.133898 455.236627 
L 1148.835715 430.94747 
L 1150.239347 403.419759 
L 1150.941163 439.043855 
L 1151.642979 440.663133 
L 1152.344795 463.333012 
L 1153.046612 450.378795 
L 1153.748428 458.475181 
L 1155.15206 390.465542 
L 1155.853876 411.516145 
L 1156.555693 393.704096 
L 1157.257509 430.94747 
L 1157.959325 434.186024 
L 1158.661141 396.942651 
L 1159.362957 348.364337 
L 1160.064773 375.892048 
L 1160.76659 429.328193 
L 1161.468406 429.328193 
L 1162.170222 437.424578 
L 1162.872038 439.043855 
L 1163.573854 382.369157 
L 1164.27567 303.024578 
L 1164.977487 345.125783 
L 1165.679303 455.236627 
L 1166.381119 440.663133 
L 1167.082935 439.043855 
L 1167.784751 451.998072 
L 1168.486567 451.998072 
L 1169.188384 426.089639 
L 1169.8902 413.135422 
L 1170.592016 403.419759 
L 1171.293832 435.805301 
L 1171.995648 456.855904 
L 1172.697464 451.998072 
L 1173.399281 443.901687 
L 1174.101097 456.855904 
L 1174.802913 406.658313 
L 1175.504729 450.378795 
L 1176.206545 419.61253 
L 1176.908361 338.648675 
L 1177.610178 320.836627 
L 1178.311994 393.704096 
L 1179.01381 442.28241 
L 1179.715626 429.328193 
L 1180.417442 401.800482 
L 1181.119258 460.094458 
L 1181.821075 437.424578 
L 1182.522891 456.855904 
L 1183.224707 422.851084 
L 1184.628339 416.373976 
L 1185.330155 419.61253 
L 1186.031972 450.378795 
L 1186.733788 455.236627 
L 1187.435604 427.708916 
L 1188.13742 380.74988 
L 1188.839236 369.41494 
L 1189.541052 372.653494 
L 1190.242869 387.226988 
L 1190.944685 406.658313 
L 1191.646501 455.236627 
L 1192.348317 387.226988 
L 1193.751949 359.699277 
L 1194.453766 338.648675 
L 1195.155582 340.267952 
L 1195.857398 338.648675 
L 1196.559214 330.552289 
L 1197.26103 345.125783 
L 1198.664663 396.942651 
L 1199.366479 468.190843 
L 1200.068295 477.906506 
L 1200.770111 473.048675 
L 1202.173744 453.617349 
L 1202.87556 460.094458 
L 1203.577376 406.658313 
L 1204.279192 390.465542 
L 1204.981008 392.084819 
L 1205.682824 306.263133 
L 1206.384641 312.740241 
L 1207.086457 430.94747 
L 1207.788273 473.048675 
L 1208.490089 390.465542 
L 1209.191905 322.455904 
L 1209.893721 403.419759 
L 1210.595538 437.424578 
L 1211.297354 460.094458 
L 1211.99917 377.511325 
L 1212.700986 417.993253 
L 1213.402802 422.851084 
L 1214.104618 400.181205 
L 1214.806435 385.607711 
L 1215.508251 461.713735 
L 1216.210067 439.043855 
L 1216.911883 486.002892 
L 1217.613699 471.429398 
L 1218.315515 432.566747 
L 1219.017332 429.328193 
L 1220.420964 450.378795 
L 1221.12278 424.470361 
L 1221.824596 453.617349 
L 1222.526412 460.094458 
L 1223.228229 434.186024 
L 1223.930045 426.089639 
L 1224.631861 403.419759 
L 1225.333677 443.901687 
L 1226.035493 461.713735 
L 1226.737309 421.231807 
L 1227.439126 395.323373 
L 1228.140942 456.855904 
L 1228.842758 482.764337 
L 1229.544574 440.663133 
L 1230.24639 439.043855 
L 1230.948206 463.333012 
L 1232.351839 403.419759 
L 1233.053655 417.993253 
L 1233.755471 451.998072 
L 1234.457287 442.28241 
L 1235.159103 440.663133 
L 1235.86092 361.318554 
L 1236.562736 348.364337 
L 1237.264552 440.663133 
L 1237.966368 451.998072 
L 1238.668184 453.617349 
L 1239.370001 453.617349 
L 1240.071817 473.048675 
L 1240.773633 484.383614 
L 1241.475449 406.658313 
L 1242.177265 398.561928 
L 1242.879081 448.759518 
L 1243.580898 447.140241 
L 1244.282714 466.571566 
L 1244.98453 448.759518 
L 1245.686346 455.236627 
L 1246.388162 445.520964 
L 1247.089978 461.713735 
L 1247.791795 411.516145 
L 1248.493611 390.465542 
L 1249.195427 447.140241 
L 1249.897243 461.713735 
L 1250.599059 463.333012 
L 1251.300875 477.906506 
L 1252.002692 460.094458 
L 1252.704508 461.713735 
L 1253.406324 442.28241 
L 1254.10814 447.140241 
L 1254.809956 456.855904 
L 1255.511772 455.236627 
L 1256.213589 451.998072 
L 1256.915405 455.236627 
L 1257.617221 455.236627 
L 1258.319037 432.566747 
L 1259.020853 392.084819 
L 1259.722669 430.94747 
L 1260.424486 443.901687 
L 1261.126302 448.759518 
L 1261.828118 450.378795 
L 1262.529934 443.901687 
L 1263.23175 426.089639 
L 1263.933566 396.942651 
L 1264.635383 455.236627 
L 1265.337199 455.236627 
L 1266.039015 447.140241 
L 1266.740831 417.993253 
L 1267.442647 312.740241 
L 1268.144463 461.713735 
L 1268.84628 464.952289 
L 1269.548096 435.805301 
L 1270.249912 320.836627 
L 1270.951728 293.308916 
L 1271.653544 453.617349 
L 1272.35536 413.135422 
L 1273.057177 447.140241 
L 1273.758993 442.28241 
L 1274.460809 440.663133 
L 1275.162625 422.851084 
L 1275.864441 429.328193 
L 1276.566257 463.333012 
L 1277.268074 471.429398 
L 1277.96989 461.713735 
L 1278.671706 455.236627 
L 1279.373522 471.429398 
L 1280.075338 416.373976 
L 1280.777155 380.74988 
L 1281.478971 408.27759 
L 1282.180787 379.130602 
L 1282.882603 396.942651 
L 1283.584419 379.130602 
L 1284.286235 427.708916 
L 1284.988052 396.942651 
L 1285.689868 332.171566 
L 1286.391684 451.998072 
L 1287.0935 424.470361 
L 1287.795316 442.28241 
L 1288.497132 424.470361 
L 1289.198949 333.790843 
L 1289.900765 439.043855 
L 1290.602581 405.039036 
L 1291.304397 327.313735 
L 1292.006213 435.805301 
L 1292.708029 416.373976 
L 1293.409846 364.557108 
L 1294.111662 364.557108 
L 1294.813478 456.855904 
L 1295.515294 466.571566 
L 1296.21711 466.571566 
L 1296.918926 476.287229 
L 1297.620743 392.084819 
L 1298.322559 421.231807 
L 1299.024375 416.373976 
L 1299.726191 409.896867 
L 1300.428007 408.27759 
L 1301.129823 371.034217 
L 1301.83164 374.272771 
L 1302.533456 398.561928 
L 1303.235272 254.446265 
L 1303.937088 395.323373 
L 1304.638904 426.089639 
L 1305.34072 430.94747 
L 1306.042537 469.81012 
L 1306.744353 448.759518 
L 1307.446169 375.892048 
L 1308.147985 158.908916 
L 1308.849801 351.602892 
L 1309.551617 456.855904 
L 1310.253434 460.094458 
L 1310.95525 481.14506 
L 1311.657066 455.236627 
L 1312.358882 393.704096 
L 1313.060698 471.429398 
L 1313.762514 327.313735 
L 1314.464331 440.663133 
L 1315.166147 427.708916 
L 1315.867963 422.851084 
L 1316.569779 447.140241 
L 1317.271595 408.27759 
L 1317.973411 448.759518 
L 1318.675228 434.186024 
L 1319.377044 372.653494 
L 1320.07886 293.308916 
L 1320.780676 349.983614 
L 1321.482492 257.684819 
L 1322.184308 335.41012 
L 1322.886125 427.708916 
L 1323.587941 421.231807 
L 1324.289757 341.887229 
L 1324.991573 464.952289 
L 1325.693389 479.525783 
L 1326.395206 471.429398 
L 1327.097022 479.525783 
L 1327.798838 469.81012 
L 1328.500654 324.075181 
L 1329.20247 147.573976 
L 1329.904286 157.289639 
L 1330.606103 254.446265 
L 1331.307919 298.166747 
L 1332.009735 451.998072 
L 1332.711551 443.901687 
L 1333.413367 406.658313 
L 1334.115183 447.140241 
L 1334.817 455.236627 
L 1335.518816 345.125783 
L 1336.220632 385.607711 
L 1336.922448 354.841446 
L 1337.624264 375.892048 
L 1338.32608 380.74988 
L 1339.027897 434.186024 
L 1339.729713 422.851084 
L 1340.431529 430.94747 
L 1341.133345 460.094458 
L 1341.835161 430.94747 
L 1342.536977 456.855904 
L 1343.238794 453.617349 
L 1343.94061 424.470361 
L 1344.642426 439.043855 
L 1345.344242 421.231807 
L 1346.046058 413.135422 
L 1346.747874 435.805301 
L 1347.449691 442.28241 
L 1348.151507 437.424578 
L 1348.853323 424.470361 
L 1349.555139 447.140241 
L 1350.256955 371.034217 
L 1350.958771 456.855904 
L 1351.660588 450.378795 
L 1352.362404 442.28241 
L 1353.06422 455.236627 
L 1353.766036 447.140241 
L 1354.467852 464.952289 
L 1355.169668 409.896867 
L 1355.871485 432.566747 
L 1356.573301 385.607711 
L 1357.275117 382.369157 
L 1357.976933 445.520964 
L 1358.678749 448.759518 
L 1359.380565 460.094458 
L 1360.082382 424.470361 
L 1360.784198 448.759518 
L 1361.486014 455.236627 
L 1362.18783 439.043855 
L 1362.889646 458.475181 
L 1363.591462 419.61253 
L 1364.293279 461.713735 
L 1364.995095 356.460723 
L 1365.696911 330.552289 
L 1366.398727 390.465542 
L 1367.100543 364.557108 
L 1367.80236 382.369157 
L 1368.504176 382.369157 
L 1369.205992 401.800482 
L 1369.907808 450.378795 
L 1370.609624 464.952289 
L 1371.31144 442.28241 
L 1372.013257 408.27759 
L 1372.715073 388.846265 
L 1373.416889 413.135422 
L 1374.118705 445.520964 
L 1374.820521 456.855904 
L 1375.522337 362.937831 
L 1376.224154 421.231807 
L 1376.92597 413.135422 
L 1377.627786 403.419759 
L 1378.329602 419.61253 
L 1379.031418 358.08 
L 1379.733234 424.470361 
L 1380.435051 440.663133 
L 1381.136867 451.998072 
L 1381.838683 377.511325 
L 1382.540499 349.983614 
L 1383.242315 427.708916 
L 1383.944131 398.561928 
L 1384.645948 408.27759 
L 1385.347764 426.089639 
L 1386.04958 430.94747 
L 1386.751396 440.663133 
L 1387.453212 439.043855 
L 1388.155028 453.617349 
L 1388.856845 388.846265 
L 1389.558661 448.759518 
L 1390.260477 338.648675 
L 1390.962293 290.070361 
L 1391.664109 299.786024 
L 1392.365925 322.455904 
L 1393.067742 405.039036 
L 1393.769558 379.130602 
L 1394.471374 409.896867 
L 1395.17319 380.74988 
L 1395.875006 426.089639 
L 1396.576822 426.089639 
L 1397.278639 451.998072 
L 1397.980455 426.089639 
L 1398.682271 419.61253 
L 1399.384087 421.231807 
L 1400.085903 424.470361 
L 1400.787719 361.318554 
L 1401.489536 340.267952 
L 1402.191352 377.511325 
L 1402.893168 371.034217 
L 1403.594984 379.130602 
L 1404.2968 395.323373 
L 1404.998616 388.846265 
L 1405.700433 447.140241 
L 1406.402249 453.617349 
L 1407.104065 455.236627 
L 1407.805881 451.998072 
L 1408.507697 395.323373 
L 1409.209514 387.226988 
L 1409.91133 442.28241 
L 1410.613146 447.140241 
L 1411.314962 437.424578 
L 1412.016778 351.602892 
L 1412.718594 290.070361 
L 1414.122227 387.226988 
L 1414.824043 385.607711 
L 1415.525859 409.896867 
L 1416.227675 401.800482 
L 1416.929491 424.470361 
L 1417.631308 333.790843 
L 1418.333124 348.364337 
L 1419.03494 414.754699 
L 1419.736756 448.759518 
L 1420.438572 451.998072 
L 1421.140388 422.851084 
L 1421.842205 337.029398 
L 1422.544021 317.598072 
L 1423.245837 327.313735 
L 1423.947653 403.419759 
L 1424.649469 434.186024 
L 1425.351285 442.28241 
L 1426.053102 442.28241 
L 1426.754918 447.140241 
L 1427.456734 458.475181 
L 1428.15855 456.855904 
L 1428.860366 453.617349 
L 1429.562182 458.475181 
L 1430.263999 427.708916 
L 1430.965815 437.424578 
L 1431.667631 396.942651 
L 1432.369447 385.607711 
L 1433.071263 419.61253 
L 1433.773079 435.805301 
L 1434.474896 432.566747 
L 1435.176712 473.048675 
L 1435.878528 484.383614 
L 1437.28216 474.667952 
L 1437.983976 430.94747 
L 1438.685793 461.713735 
L 1439.387609 477.906506 
L 1440.089425 482.764337 
L 1440.791241 430.94747 
L 1441.493057 463.333012 
L 1442.194873 479.525783 
L 1442.89669 463.333012 
L 1443.598506 477.906506 
L 1444.300322 477.906506 
L 1445.002138 474.667952 
L 1445.703954 476.287229 
L 1446.40577 484.383614 
L 1447.107587 486.002892 
L 1447.809403 486.002892 
L 1448.511219 487.622169 
L 1449.213035 463.333012 
L 1449.914851 460.094458 
L 1450.616668 492.48 
L 1451.318484 479.525783 
L 1452.0203 419.61253 
L 1452.722116 387.226988 
L 1453.423932 416.373976 
L 1454.125748 361.318554 
L 1454.827565 371.034217 
L 1455.529381 400.181205 
L 1456.231197 421.231807 
L 1456.933013 455.236627 
L 1457.634829 451.998072 
L 1458.336645 461.713735 
L 1459.038462 464.952289 
L 1459.740278 439.043855 
L 1460.442094 439.043855 
L 1461.14391 432.566747 
L 1461.845726 466.571566 
L 1463.249359 439.043855 
L 1463.951175 411.516145 
L 1464.652991 427.708916 
L 1465.354807 481.14506 
L 1466.056623 477.906506 
L 1467.460256 477.906506 
L 1468.162072 482.764337 
L 1468.863888 473.048675 
L 1469.565704 479.525783 
L 1470.26752 484.383614 
L 1470.969336 468.190843 
L 1471.671153 474.667952 
L 1472.372969 471.429398 
L 1473.074785 398.561928 
L 1473.776601 464.952289 
L 1474.478417 474.667952 
L 1475.180233 473.048675 
L 1475.88205 398.561928 
L 1476.583866 421.231807 
L 1477.987498 383.988434 
L 1478.689314 380.74988 
L 1479.39113 359.699277 
L 1480.092947 377.511325 
L 1480.794763 460.094458 
L 1481.496579 453.617349 
L 1482.198395 453.617349 
L 1482.900211 466.571566 
L 1483.602027 476.287229 
L 1485.00566 479.525783 
L 1485.707476 474.667952 
L 1486.409292 481.14506 
L 1487.111108 492.48 
L 1487.812924 482.764337 
L 1488.514741 437.424578 
L 1489.216557 453.617349 
L 1489.918373 450.378795 
L 1490.620189 460.094458 
L 1491.322005 409.896867 
L 1492.023822 392.084819 
L 1492.725638 455.236627 
L 1493.427454 451.998072 
L 1494.12927 458.475181 
L 1494.831086 463.333012 
L 1495.532902 455.236627 
L 1496.234719 393.704096 
L 1496.936535 437.424578 
L 1497.638351 434.186024 
L 1498.340167 432.566747 
L 1499.041983 421.231807 
L 1499.743799 440.663133 
L 1500.445616 439.043855 
L 1501.147432 401.800482 
L 1501.849248 451.998072 
L 1502.551064 448.759518 
L 1503.25288 442.28241 
L 1503.954696 460.094458 
L 1504.656513 461.713735 
L 1505.358329 455.236627 
L 1506.060145 468.190843 
L 1506.761961 461.713735 
L 1507.463777 448.759518 
L 1508.165593 426.089639 
L 1508.86741 451.998072 
L 1509.569226 461.713735 
L 1510.271042 469.81012 
L 1510.972858 468.190843 
L 1511.674674 473.048675 
L 1512.37649 406.658313 
L 1513.078307 369.41494 
L 1513.780123 434.186024 
L 1514.481939 401.800482 
L 1515.183755 413.135422 
L 1515.885571 421.231807 
L 1516.587387 403.419759 
L 1517.289204 450.378795 
L 1517.99102 455.236627 
L 1518.692836 461.713735 
L 1519.394652 473.048675 
L 1520.096468 469.81012 
L 1520.798284 455.236627 
L 1521.500101 455.236627 
L 1522.201917 453.617349 
L 1522.903733 445.520964 
L 1523.605549 484.383614 
L 1524.307365 416.373976 
L 1525.009181 424.470361 
L 1525.710998 414.754699 
L 1526.412814 463.333012 
L 1527.11463 456.855904 
L 1527.816446 442.28241 
L 1528.518262 460.094458 
L 1529.921895 466.571566 
L 1530.623711 481.14506 
L 1531.325527 372.653494 
L 1532.027343 400.181205 
L 1532.729159 474.667952 
L 1533.430975 443.901687 
L 1534.132792 429.328193 
L 1534.834608 419.61253 
L 1535.536424 348.364337 
L 1536.23824 395.323373 
L 1536.940056 362.937831 
L 1537.641873 269.019759 
L 1538.343689 304.643855 
L 1539.747321 427.708916 
L 1540.449137 455.236627 
L 1541.150953 409.896867 
L 1541.85277 456.855904 
L 1542.554586 440.663133 
L 1543.256402 471.429398 
L 1543.958218 469.81012 
L 1544.660034 460.094458 
L 1545.36185 456.855904 
L 1546.063667 484.383614 
L 1546.765483 471.429398 
L 1547.467299 366.176386 
L 1548.169115 372.653494 
L 1548.870931 405.039036 
L 1549.572747 477.906506 
L 1550.274564 379.130602 
L 1550.97638 315.978795 
L 1551.678196 338.648675 
L 1553.081828 453.617349 
L 1553.783644 429.328193 
L 1554.485461 453.617349 
L 1555.187277 447.140241 
L 1555.889093 458.475181 
L 1556.590909 460.094458 
L 1556.590909 460.094458 
" clip-path="url(#paeb7c90126)" style="fill: none; stroke: #228b22; stroke-width: 1.5; stroke-linecap: square"/>
   </g>
   <g id="patch_3">
    <path d="M 225 512.64 
L 225 69.12 
" style="fill: none; stroke: #000000; stroke-width: 0.8; stroke-linejoin: miter; stroke-linecap: square"/>
   </g>
   <g id="patch_4">
    <path d="M 1620 512.64 
L 1620 69.12 
" style="fill: none; stroke: #000000; stroke-width: 0.8; stroke-linejoin: miter; stroke-linecap: square"/>
   </g>
   <g id="patch_5">
    <path d="M 225 512.64 
L 1620 512.64 
" style="fill: none; stroke: #000000; stroke-width: 0.8; stroke-linejoin: miter; stroke-linecap: square"/>
   </g>
   <g id="patch_6">
    <path d="M 225 69.12 
L 1620 69.12 
" style="fill: none; stroke: #000000; stroke-width: 0.8; stroke-linejoin: miter; stroke-linecap: square"/>
   </g>
   <g id="text_14">
    <!-- AQI -->
    <g transform="translate(896.25 63.12)scale(0.15 -0.15)">
     <defs>
      <path id="SimHei-41" d="M 3075 125 
L 2475 125 
L 2125 1450 
L 1025 1450 
L 675 125 
L 75 125 
L 1325 4450 
L 1825 4450 
L 3075 125 
z
M 2000 1925 
L 1600 3450 
L 1550 3450 
L 1150 1925 
L 2000 1925 
z
" transform="scale(0.015625)"/>
      <path id="SimHei-51" d="M 2950 2275 
Q 2950 1675 2862 1262 
Q 2775 850 2575 600 
L 2775 225 
L 2375 -200 
L 2150 225 
Q 2050 150 1900 112 
Q 1750 75 1575 75 
Q 925 75 550 587 
Q 175 1100 175 2275 
Q 175 3450 550 3950 
Q 925 4450 1575 4450 
Q 2225 4450 2587 3950 
Q 2950 3450 2950 2275 
z
M 2350 2275 
Q 2350 3325 2125 3650 
Q 1900 3975 1575 3975 
Q 1250 3975 1012 3650 
Q 775 3325 775 2275 
Q 775 1225 1012 887 
Q 1250 550 1575 550 
Q 1700 550 1800 587 
Q 1900 625 1950 675 
L 1550 1450 
L 1900 1875 
L 2250 1200 
Q 2300 1450 2325 1650 
Q 2350 1850 2350 2275 
z
" transform="scale(0.015625)"/>
      <path id="SimHei-49" d="M 1850 125 
L 1275 125 
L 1275 4400 
L 1850 4400 
L 1850 125 
z
" transform="scale(0.015625)"/>
      <path id="SimHei-6307" d="M 5625 2225 
Q 5600 1925 5600 1350 
L 5600 300 
Q 5600 -225 5625 -525 
L 5125 -525 
L 5125 -125 
L 3300 -125 
L 3300 -625 
L 2800 -625 
Q 2825 -300 2825 300 
L 2825 1350 
Q 2825 1925 2800 2225 
L 5625 2225 
z
M 500 25 
Q 1075 -25 1175 37 
Q 1275 100 1275 275 
L 1275 1675 
Q 1050 1600 925 1537 
Q 800 1475 475 1275 
Q 400 1525 225 1800 
Q 625 1900 825 1975 
Q 1025 2050 1275 2125 
L 1275 3300 
L 1100 3300 
Q 775 3300 450 3275 
L 450 3725 
Q 750 3700 1100 3700 
L 1275 3700 
L 1275 4450 
Q 1275 4800 1250 5125 
L 1775 5125 
Q 1750 4850 1750 4450 
L 1750 3700 
Q 2075 3700 2425 3725 
L 2425 3275 
Q 2050 3300 1750 3300 
L 1750 2325 
Q 1850 2350 2025 2425 
L 2375 2575 
Q 2350 2300 2375 2100 
Q 2225 2050 2062 1987 
Q 1900 1925 1750 1850 
L 1750 100 
Q 1725 -200 1575 -337 
Q 1425 -475 675 -525 
Q 625 -250 500 25 
z
M 3325 5025 
Q 3300 4675 3300 4125 
Q 4125 4275 4512 4412 
Q 4900 4550 5225 4725 
Q 5325 4475 5575 4250 
Q 5450 4225 5237 4175 
Q 5025 4125 4725 4050 
Q 4425 3975 4037 3887 
Q 3650 3800 3300 3725 
L 3300 3175 
Q 3275 2925 3700 2925 
L 4925 2925 
Q 5300 2925 5387 3087 
Q 5475 3250 5550 3600 
Q 5750 3400 6050 3300 
Q 5825 2725 5700 2637 
Q 5575 2550 5275 2525 
L 3350 2525 
Q 3050 2525 2937 2687 
Q 2825 2850 2825 2975 
L 2825 4125 
Q 2825 4775 2800 5025 
L 3325 5025 
z
M 5125 275 
L 5125 875 
L 3300 875 
L 3300 275 
L 5125 275 
z
M 5125 1250 
L 5125 1825 
L 3300 1825 
L 3300 1250 
L 5125 1250 
z
" transform="scale(0.015625)"/>
      <path id="SimHei-6570" d="M 4525 4925 
Q 4475 4800 4400 4587 
Q 4325 4375 4175 3825 
L 5325 3825 
Q 5575 3825 5925 3850 
L 5925 3400 
Q 5650 3425 5500 3425 
Q 5500 3025 5362 2162 
Q 5225 1300 4875 675 
Q 5125 375 5437 137 
Q 5750 -100 6025 -200 
Q 5725 -425 5625 -625 
Q 5325 -450 5075 -225 
Q 4825 0 4575 325 
Q 4300 25 3987 -187 
Q 3675 -400 3200 -650 
Q 3075 -425 2850 -300 
Q 3225 -150 3650 125 
Q 4075 400 4300 675 
Q 4125 1025 3962 1425 
Q 3800 1825 3675 2475 
Q 3600 2275 3425 1950 
Q 3250 2050 3000 2150 
Q 3400 2850 3650 3675 
Q 3900 4500 3975 5100 
Q 4275 4975 4525 4925 
z
M 2100 2250 
Q 2000 2150 1875 1925 
L 3250 1925 
Q 3100 1300 2725 675 
Q 3125 525 3350 400 
Q 3225 225 3125 25 
Q 2900 175 2450 325 
Q 1950 -225 725 -650 
Q 600 -375 400 -275 
Q 1575 0 2000 475 
Q 1300 650 850 775 
Q 1000 1000 1250 1525 
Q 1000 1525 425 1500 
L 425 1950 
Q 900 1925 1400 1925 
Q 1500 2150 1550 2425 
Q 1825 2325 2100 2250 
z
M 1775 3950 
Q 1775 4550 1750 5100 
L 2250 5100 
Q 2225 4575 2225 3950 
Q 3075 3950 3425 3975 
L 3425 3525 
Q 3075 3550 2225 3550 
Q 2225 2825 2250 2425 
L 1750 2425 
Q 1775 2775 1775 3300 
Q 1650 3100 1300 2787 
Q 950 2475 650 2300 
Q 525 2525 275 2625 
Q 500 2700 875 2975 
Q 1250 3250 1450 3550 
Q 950 3550 500 3525 
L 500 3975 
Q 925 3950 1775 3950 
z
M 3975 3175 
Q 4200 1700 4600 1125 
Q 4850 1700 4937 2287 
Q 5025 2875 5050 3425 
L 4075 3425 
L 3975 3175 
z
M 1450 1000 
Q 1750 925 2275 800 
Q 2475 1050 2650 1525 
L 1725 1525 
Q 1600 1275 1450 1000 
z
M 3325 4825 
Q 3200 4625 3125 4450 
Q 3050 4275 2925 4025 
Q 2725 4125 2525 4175 
Q 2725 4500 2900 5000 
Q 3150 4875 3325 4825 
z
M 2575 3375 
Q 2900 3050 3200 2725 
Q 3050 2600 2875 2425 
Q 2525 2850 2300 3100 
Q 2450 3225 2575 3375 
z
M 925 5000 
Q 1275 4650 1500 4300 
L 1125 4075 
Q 950 4425 600 4725 
Q 825 4875 925 5000 
z
" transform="scale(0.015625)"/>
     </defs>
     <use xlink:href="#SimHei-41"/>
     <use xlink:href="#SimHei-51" x="50"/>
     <use xlink:href="#SimHei-49" x="100"/>
     <use xlink:href="#SimHei-6307" x="150"/>
     <use xlink:href="#SimHei-6570" x="250"/>
    </g>
   </g>
  </g>
 </g>
 <defs>
  <clipPath id="paeb7c90126">
   <rect x="225" y="69.12" width="1395" height="443.52"/>
  </clipPath>
 </defs>
</svg>
